<svg width="140" height="27" viewBox="0 0 140 27" fill="none" xmlns="http://www.w3.org/2000/svg">
<path d="M0.240234 26L10.7102 0.870117H14.3802L24.9203 26H19.7903L17.1002 19.5098H8.16028L5.37024 26H0.240234ZM9.86023 15.0498H15.2302L12.5503 7.43994L9.86023 15.0498ZM30.9802 26L21.1902 0.870117H26.0802L32.8502 19.98L39.6102 0.870117H44.5103L34.7903 26H30.9802ZM40.7803 26L51.2502 0.870117H54.9203L65.4602 26H60.3302L57.6403 19.5098H48.7002L45.9103 26H40.7803ZM50.4003 15.0498H55.7703L53.0902 7.43994L50.4003 15.0498ZM69.0802 26V5.33008H64.4203V0.870117H78.3903V5.33008H73.7402V26H69.0802ZM77.3402 26L87.8103 0.870117H91.4802L102.02 26H96.8903L94.2002 19.5098H85.2603L82.4702 26H77.3402ZM86.9602 15.0498H92.3302L89.6403 7.43994L86.9602 15.0498ZM104.68 26V0.870117H111.92C115.46 0.870117 117.29 1.37988 118.96 2.87988C120.59 4.33988 121.44 6.42018 121.44 8.93018C121.44 11.4802 120.52 13.52 118.72 14.98C117.67 15.83 116.75 16.2402 114.88 16.7202L121.68 26H115.93L109.34 16.3799V26H104.68ZM109.34 12.8799H111.62C115.22 12.8799 116.75 11.7198 116.75 9.06982C116.75 7.80982 116.31 6.79014 115.46 6.14014C114.71 5.57014 113.52 5.33008 111.41 5.33008H109.34V12.8799ZM123.43 18.8301H128.29C128.5 20.9301 129.62 21.9502 131.69 21.9502C133.7 21.9502 135.09 20.7001 135.09 18.8901C135.09 17.8101 134.69 16.9198 133.84 16.2798C133.09 15.7298 132.92 15.6302 129.59 14.4102C126.19 13.1502 124.35 10.7298 124.35 7.56982C124.35 3.58982 127.58 0.430176 131.66 0.430176C134.07 0.430176 136.32 1.49004 137.68 3.29004C138.6 4.51004 139 5.73982 139.11 7.56982H134.28C134.14 5.86982 133.19 4.91992 131.63 4.91992C130.1 4.91992 129.04 5.97021 129.04 7.47021C129.04 8.42021 129.55 9.19979 130.5 9.77979C130.81 9.98979 130.91 10.0201 133.22 10.8701C135.71 11.8201 136.49 12.2299 137.47 13.1499C138.97 14.5099 139.72 16.2799 139.72 18.3799C139.72 22.9399 136.22 26.4399 131.69 26.4399C128.94 26.4399 126.42 25.25 124.96 23.25C123.98 21.92 123.57 20.7301 123.43 18.8301Z" fill="#BDCF01"/>
</svg>
