<svg width="40" height="40" viewBox="0 0 40 40" fill="none" xmlns="http://www.w3.org/2000/svg">
<path fill-rule="evenodd" clip-rule="evenodd" d="M40 20C40 31.05 31.05 40 20 40C8.95 40 0 31.05 0 20C0 8.95 8.95 0 20 0C31.05 0 40 8.95 40 20ZM20.72 14.7598C18.77 15.5698 14.88 17.25 9.05005 19.79C8.11005 20.17 7.60995 20.5301 7.56995 20.8901C7.48995 21.5001 8.25004 21.7398 9.29004 22.0698C9.43004 22.1098 9.57998 22.16 9.72998 22.21C10.75 22.54 12.12 22.9299 12.84 22.9399C13.48 22.9599 14.21 22.6901 15 22.1401C20.45 18.4701 23.2599 16.6098 23.4399 16.5698C23.5699 16.5398 23.74 16.4999 23.85 16.6099C23.97 16.7099 23.96 16.91 23.95 16.96C23.87 17.28 20.88 20.06 19.33 21.5C18.85 21.95 18.5099 22.2698 18.4399 22.3398C18.2799 22.5098 18.12 22.6601 17.97 22.8101C17.02 23.7201 16.31 24.4098 18.01 25.5298C18.82 26.0698 19.48 26.51 20.13 26.96C20.84 27.44 21.55 27.9198 22.47 28.5298C22.7 28.6798 22.93 28.8402 23.14 28.9902C23.97 29.5802 24.72 30.1198 25.64 30.0298C26.17 29.9798 26.72 29.48 27 27.98C27.67 24.44 28.97 16.7601 29.27 13.6001C29.3 13.3201 29.26 12.9701 29.24 12.8101C29.21 12.6601 29.15 12.44 28.95 12.27C28.71 12.08 28.3401 12.04 28.1801 12.04C27.4301 12.05 26.27 12.4498 20.72 14.7598Z" fill="#2D9CDB"/>
</svg>
