<svg width="40" height="40" viewBox="0 0 40 40" fill="none" xmlns="http://www.w3.org/2000/svg">
<path d="M20 0C8.95 0 0 8.95 0 20C0 31.05 8.95 40 20 40C31.05 40 40 31.05 40 20C40 8.95 31.05 0 20 0ZM27.6899 22.5601C27.6899 22.5601 29.46 24.3101 29.9 25.1201C29.91 25.1401 29.91 25.1502 29.92 25.1602C30.1 25.4602 30.14 25.6899 30.05 25.8599C29.9 26.1499 29.4 26.2901 29.23 26.3101H26.11C25.89 26.3101 25.44 26.2501 24.89 25.8701C24.46 25.5701 24.05 25.0901 23.64 24.6201C23.04 23.9101 22.51 23.2998 21.98 23.2998C21.91 23.2998 21.85 23.3098 21.78 23.3398C21.38 23.4598 20.87 24.0401 20.87 25.5601C20.87 26.0301 20.5 26.2998 20.23 26.2998H18.8C18.31 26.2998 15.77 26.1298 13.52 23.7598C10.77 20.8498 8.29002 15.0202 8.27002 14.9702C8.11002 14.5902 8.44004 14.3901 8.79004 14.3901H11.9399C12.3599 14.3901 12.5 14.6501 12.6 14.8701C12.71 15.1401 13.12 16.1899 13.8 17.3799C14.9 19.2999 15.57 20.0898 16.11 20.0898C16.21 20.0898 16.31 20.0598 16.4 20.0098C17.1 19.6198 16.9699 17.1098 16.9399 16.5898C16.9399 16.4898 16.94 15.4702 16.58 14.9702C16.32 14.6202 15.88 14.4802 15.61 14.4302C15.72 14.2802 15.86 14.1601 16.03 14.0801C16.51 13.8401 17.38 13.7998 18.25 13.7998H18.73C19.67 13.8198 19.91 13.88 20.25 13.96C20.94 14.13 20.95 14.5698 20.89 16.0898C20.87 16.5198 20.85 17.0101 20.85 17.5801C20.85 17.7101 20.85 17.84 20.85 17.98C20.83 18.76 20.8 19.6302 21.35 19.9902C21.42 20.0402 21.5 20.0601 21.58 20.0601C21.77 20.0601 22.34 20.0602 23.89 17.4102C24.37 16.5602 24.78 15.6698 25.13 14.7598C25.16 14.6998 25.25 14.5402 25.36 14.4702C25.44 14.4302 25.53 14.4102 25.62 14.4102H29.33C29.73 14.4102 30.0101 14.4699 30.0601 14.6299C30.1501 14.8699 30.05 15.6299 28.35 17.9199L27.6 18.9199C26.06 20.9399 26.0599 21.0401 27.6899 22.5601Z" fill="#2F80ED"/>
</svg>
