<svg width="40" height="40" viewBox="0 0 40 40" fill="none" xmlns="http://www.w3.org/2000/svg">
<path d="M23.34 19.6499L18.66 17.4702C18.25 17.2802 17.92 17.4899 17.92 17.9399V22.0601C17.92 22.5101 18.25 22.7198 18.66 22.5298L23.34 20.3501C23.75 20.1601 23.75 19.8399 23.34 19.6499ZM20 0C8.95 0 0 8.95 0 20C0 31.05 8.95 40 20 40C31.05 40 40 31.05 40 20C40 8.95 31.05 0 20 0ZM20 28.1201C9.76 28.1201 9.57996 27.2 9.57996 20C9.57996 12.8 9.76 11.8701 20 11.8701C30.24 11.8701 30.42 12.8 30.42 20C30.42 27.2 30.24 28.1201 20 28.1201Z" fill="#CF0101"/>
</svg>
