<svg width="22" height="21" viewBox="0 0 22 21" fill="none" xmlns="http://www.w3.org/2000/svg">
<path d="M7 20.3301C7.55 20.3301 8 19.8901 8 19.3501C8 18.8101 7.55 18.3701 7 18.3701C6.45 18.3701 6 18.8101 6 19.3501C6 19.8901 6.45 20.3301 7 20.3301Z" stroke="white" stroke-linecap="round" stroke-linejoin="round"/>
<path d="M18 20.3301C18.55 20.3301 19 19.8901 19 19.3501C19 18.8101 18.55 18.3701 18 18.3701C17.45 18.3701 17 18.8101 17 19.3501C17 19.8901 17.45 20.3301 18 20.3301Z" stroke="white" stroke-linecap="round" stroke-linejoin="round"/>
<path d="M1.0498 0.780029H3.0498L5.70972 12.95C5.80972 13.4 6.05969 13.7901 6.42969 14.0801C6.78969 14.3601 7.23972 14.51 7.70972 14.5H17.4897C17.9397 14.5 18.3897 14.3401 18.7397 14.0601C19.0997 13.7901 19.3397 13.4 19.4397 12.96L21.0898 5.68005H4.11987" stroke="white" stroke-linecap="round" stroke-linejoin="round"/>
</svg>
