<svg width="36" height="36" viewBox="0 0 36 36" fill="none" xmlns="http://www.w3.org/2000/svg">
<path d="M13 18L16.33 21.3301L23 14.6699M4.41003 12.3701C4.17003 11.2701 4.21002 10.13 4.52002 9.05005C4.84002 7.98005 5.41996 6.99995 6.20996 6.19995C7.00996 5.40995 7.98995 4.83002 9.06995 4.52002C10.1499 4.21002 11.29 4.16992 12.38 4.41992C12.98 3.46992 13.81 2.69991 14.8 2.15991C15.78 1.61991 16.88 1.34009 18 1.34009C19.12 1.34009 20.22 1.61991 21.2 2.15991C22.18 2.69991 23.01 3.46992 23.61 4.41992C24.71 4.16992 25.8501 4.21002 26.9301 4.52002C28.0101 4.83002 29 5.40996 29.79 6.20996C30.59 6.99996 31.17 7.99007 31.48 9.07007C31.79 10.1501 31.83 11.2899 31.58 12.3799C32.52 12.9899 33.3 13.82 33.84 14.8C34.37 15.78 34.66 16.88 34.66 18C34.66 19.12 34.37 20.22 33.84 21.2C33.3 22.18 32.52 23.0101 31.58 23.6201C31.83 24.7101 31.79 25.8499 31.48 26.9299C31.17 28.0099 30.59 28.99 29.79 29.78C29 30.58 28.0199 31.16 26.9399 31.48C25.8699 31.79 24.73 31.8301 23.63 31.5801C23.03 32.5301 22.2 33.3101 21.21 33.8501C20.23 34.3901 19.13 34.6699 18.01 34.6699C16.88 34.6699 15.78 34.3901 14.8 33.8501C13.81 33.3101 12.98 32.5301 12.38 31.5801C11.29 31.8301 10.1499 31.79 9.06995 31.48C7.98995 31.17 7.00996 30.59 6.20996 29.8C5.41996 29 4.84002 28.02 4.52002 26.95C4.21002 25.87 4.17003 24.7299 4.41003 23.6299C3.46003 23.0299 2.68001 22.2 2.14001 21.22C1.60001 20.23 1.31006 19.12 1.31006 18C1.31006 16.88 1.60001 15.77 2.14001 14.79C2.68001 13.8 3.46003 12.9701 4.41003 12.3701Z" stroke="#BDCF01" stroke-width="2" stroke-linecap="round" stroke-linejoin="round"/>
</svg>
